<svg width="314" height="46" viewBox="0 0 314 46" fill="none" xmlns="http://www.w3.org/2000/svg">
<path d="M34.928 26.12C34.928 27.2293 34.864 28.4027 34.736 29.64H6.704C6.91733 33.096 8.09067 35.8053 10.224 37.768C12.4 39.688 15.024 40.648 18.096 40.648C20.6133 40.648 22.704 40.072 24.368 38.92C26.0747 37.7253 27.2693 36.1467 27.952 34.184H34.224C33.2853 37.5547 31.408 40.3067 28.592 42.44C25.776 44.5307 22.2773 45.576 18.096 45.576C14.768 45.576 11.7813 44.8293 9.136 43.336C6.53333 41.8427 4.48533 39.7307 2.992 37C1.49867 34.2267 0.752 31.0267 0.752 27.4C0.752 23.7733 1.47733 20.5947 2.928 17.864C4.37867 15.1333 6.40533 13.0427 9.008 11.592C11.6533 10.0987 14.6827 9.352 18.096 9.352C21.424 9.352 24.368 10.0773 26.928 11.528C29.488 12.9787 31.4507 14.984 32.816 17.544C34.224 20.0613 34.928 22.92 34.928 26.12ZM28.912 24.904C28.912 22.6853 28.4213 20.7867 27.44 19.208C26.4587 17.5867 25.1147 16.3707 23.408 15.56C21.744 14.7067 19.888 14.28 17.84 14.28C14.896 14.28 12.3787 15.2187 10.288 17.096C8.24 18.9733 7.06667 21.576 6.768 24.904H28.912ZM55.6715 39.624L66.5515 9.928H72.7595L58.9995 45H52.2155L38.4555 9.928H44.7275L55.6715 39.624ZM110.491 26.12C110.491 27.2293 110.427 28.4027 110.299 29.64H82.2665C82.4798 33.096 83.6532 35.8053 85.7865 37.768C87.9625 39.688 90.5865 40.648 93.6585 40.648C96.1758 40.648 98.2665 40.072 99.9305 38.92C101.637 37.7253 102.832 36.1467 103.515 34.184H109.787C108.848 37.5547 106.971 40.3067 104.155 42.44C101.339 44.5307 97.8398 45.576 93.6585 45.576C90.3305 45.576 87.3438 44.8293 84.6985 43.336C82.0958 41.8427 80.0478 39.7307 78.5545 37C77.0612 34.2267 76.3145 31.0267 76.3145 27.4C76.3145 23.7733 77.0398 20.5947 78.4905 17.864C79.9412 15.1333 81.9678 13.0427 84.5705 11.592C87.2158 10.0987 90.2452 9.352 93.6585 9.352C96.9865 9.352 99.9305 10.0773 102.491 11.528C105.051 12.9787 107.013 14.984 108.379 17.544C109.787 20.0613 110.491 22.92 110.491 26.12ZM104.475 24.904C104.475 22.6853 103.984 20.7867 103.003 19.208C102.021 17.5867 100.677 16.3707 98.9705 15.56C97.3065 14.7067 95.4505 14.28 93.4025 14.28C90.4585 14.28 87.9412 15.2187 85.8505 17.096C83.8025 18.9733 82.6292 21.576 82.3305 24.904H104.475ZM135.266 9.288C139.533 9.288 142.989 10.5893 145.634 13.192C148.279 15.752 149.602 19.464 149.602 24.328V45H143.842V25.16C143.842 21.6613 142.967 18.9947 141.218 17.16C139.469 15.2827 137.079 14.344 134.05 14.344C130.978 14.344 128.525 15.304 126.69 17.224C124.898 19.144 124.002 21.9387 124.002 25.608V45H118.178V9.928H124.002V14.92C125.154 13.128 126.711 11.7413 128.674 10.76C130.679 9.77866 132.877 9.288 135.266 9.288ZM207.308 0.327999V45H198.348V15.944L186.38 45H179.596L167.564 15.944V45H158.604V0.327999H168.78L182.988 33.544L197.196 0.327999H207.308ZM249.126 26.504C249.126 27.784 249.041 28.936 248.87 29.96H222.95C223.163 32.52 224.059 34.5253 225.638 35.976C227.217 37.4267 229.158 38.152 231.462 38.152C234.79 38.152 237.158 36.7227 238.566 33.864H248.23C247.206 37.2773 245.243 40.0933 242.342 42.312C239.441 44.488 235.878 45.576 231.654 45.576C228.241 45.576 225.169 44.8293 222.438 43.336C219.75 41.8 217.638 39.6453 216.102 36.872C214.609 34.0987 213.862 30.8987 213.862 27.272C213.862 23.6027 214.609 20.3813 216.102 17.608C217.595 14.8347 219.686 12.7013 222.374 11.208C225.062 9.71467 228.155 8.968 231.654 8.968C235.025 8.968 238.033 9.69333 240.678 11.144C243.366 12.5947 245.435 14.664 246.886 17.352C248.379 19.9973 249.126 23.048 249.126 26.504ZM239.846 23.944C239.803 21.64 238.971 19.8053 237.35 18.44C235.729 17.032 233.745 16.328 231.398 16.328C229.179 16.328 227.302 17.0107 225.766 18.376C224.273 19.6987 223.355 21.5547 223.014 23.944H239.846ZM288.626 26.504C288.626 27.784 288.541 28.936 288.37 29.96H262.45C262.663 32.52 263.559 34.5253 265.138 35.976C266.717 37.4267 268.658 38.152 270.962 38.152C274.29 38.152 276.658 36.7227 278.066 33.864H287.73C286.706 37.2773 284.743 40.0933 281.842 42.312C278.941 44.488 275.378 45.576 271.154 45.576C267.741 45.576 264.669 44.8293 261.938 43.336C259.25 41.8 257.138 39.6453 255.602 36.872C254.109 34.0987 253.362 30.8987 253.362 27.272C253.362 23.6027 254.109 20.3813 255.602 17.608C257.095 14.8347 259.186 12.7013 261.874 11.208C264.562 9.71467 267.655 8.968 271.154 8.968C274.525 8.968 277.533 9.69333 280.178 11.144C282.866 12.5947 284.935 14.664 286.386 17.352C287.879 19.9973 288.626 23.048 288.626 26.504ZM279.346 23.944C279.303 21.64 278.471 19.8053 276.85 18.44C275.229 17.032 273.245 16.328 270.898 16.328C268.679 16.328 266.802 17.0107 265.266 18.376C263.773 19.6987 262.855 21.5547 262.514 23.944H279.346ZM305.598 16.904V34.056C305.598 35.2507 305.875 36.1253 306.43 36.68C307.027 37.192 308.009 37.448 309.374 37.448H313.534V45H307.902C300.35 45 296.574 41.3307 296.574 33.992V16.904H292.35V9.544H296.574V0.775997H305.598V9.544H313.534V16.904H305.598Z" fill="white"/>
<path d="M34.928 26.12C34.928 27.2293 34.864 28.4027 34.736 29.64H6.704C6.91733 33.096 8.09067 35.8053 10.224 37.768C12.4 39.688 15.024 40.648 18.096 40.648C20.6133 40.648 22.704 40.072 24.368 38.92C26.0747 37.7253 27.2693 36.1467 27.952 34.184H34.224C33.2853 37.5547 31.408 40.3067 28.592 42.44C25.776 44.5307 22.2773 45.576 18.096 45.576C14.768 45.576 11.7813 44.8293 9.136 43.336C6.53333 41.8427 4.48533 39.7307 2.992 37C1.49867 34.2267 0.752 31.0267 0.752 27.4C0.752 23.7733 1.47733 20.5947 2.928 17.864C4.37867 15.1333 6.40533 13.0427 9.008 11.592C11.6533 10.0987 14.6827 9.352 18.096 9.352C21.424 9.352 24.368 10.0773 26.928 11.528C29.488 12.9787 31.4507 14.984 32.816 17.544C34.224 20.0613 34.928 22.92 34.928 26.12ZM28.912 24.904C28.912 22.6853 28.4213 20.7867 27.44 19.208C26.4587 17.5867 25.1147 16.3707 23.408 15.56C21.744 14.7067 19.888 14.28 17.84 14.28C14.896 14.28 12.3787 15.2187 10.288 17.096C8.24 18.9733 7.06667 21.576 6.768 24.904H28.912ZM55.6715 39.624L66.5515 9.928H72.7595L58.9995 45H52.2155L38.4555 9.928H44.7275L55.6715 39.624ZM110.491 26.12C110.491 27.2293 110.427 28.4027 110.299 29.64H82.2665C82.4798 33.096 83.6532 35.8053 85.7865 37.768C87.9625 39.688 90.5865 40.648 93.6585 40.648C96.1758 40.648 98.2665 40.072 99.9305 38.92C101.637 37.7253 102.832 36.1467 103.515 34.184H109.787C108.848 37.5547 106.971 40.3067 104.155 42.44C101.339 44.5307 97.8398 45.576 93.6585 45.576C90.3305 45.576 87.3438 44.8293 84.6985 43.336C82.0958 41.8427 80.0478 39.7307 78.5545 37C77.0612 34.2267 76.3145 31.0267 76.3145 27.4C76.3145 23.7733 77.0398 20.5947 78.4905 17.864C79.9412 15.1333 81.9678 13.0427 84.5705 11.592C87.2158 10.0987 90.2452 9.352 93.6585 9.352C96.9865 9.352 99.9305 10.0773 102.491 11.528C105.051 12.9787 107.013 14.984 108.379 17.544C109.787 20.0613 110.491 22.92 110.491 26.12ZM104.475 24.904C104.475 22.6853 103.984 20.7867 103.003 19.208C102.021 17.5867 100.677 16.3707 98.9705 15.56C97.3065 14.7067 95.4505 14.28 93.4025 14.28C90.4585 14.28 87.9412 15.2187 85.8505 17.096C83.8025 18.9733 82.6292 21.576 82.3305 24.904H104.475ZM135.266 9.288C139.533 9.288 142.989 10.5893 145.634 13.192C148.279 15.752 149.602 19.464 149.602 24.328V45H143.842V25.16C143.842 21.6613 142.967 18.9947 141.218 17.16C139.469 15.2827 137.079 14.344 134.05 14.344C130.978 14.344 128.525 15.304 126.69 17.224C124.898 19.144 124.002 21.9387 124.002 25.608V45H118.178V9.928H124.002V14.92C125.154 13.128 126.711 11.7413 128.674 10.76C130.679 9.77866 132.877 9.288 135.266 9.288ZM207.308 0.327999V45H198.348V15.944L186.38 45H179.596L167.564 15.944V45H158.604V0.327999H168.78L182.988 33.544L197.196 0.327999H207.308ZM249.126 26.504C249.126 27.784 249.041 28.936 248.87 29.96H222.95C223.163 32.52 224.059 34.5253 225.638 35.976C227.217 37.4267 229.158 38.152 231.462 38.152C234.79 38.152 237.158 36.7227 238.566 33.864H248.23C247.206 37.2773 245.243 40.0933 242.342 42.312C239.441 44.488 235.878 45.576 231.654 45.576C228.241 45.576 225.169 44.8293 222.438 43.336C219.75 41.8 217.638 39.6453 216.102 36.872C214.609 34.0987 213.862 30.8987 213.862 27.272C213.862 23.6027 214.609 20.3813 216.102 17.608C217.595 14.8347 219.686 12.7013 222.374 11.208C225.062 9.71467 228.155 8.968 231.654 8.968C235.025 8.968 238.033 9.69333 240.678 11.144C243.366 12.5947 245.435 14.664 246.886 17.352C248.379 19.9973 249.126 23.048 249.126 26.504ZM239.846 23.944C239.803 21.64 238.971 19.8053 237.35 18.44C235.729 17.032 233.745 16.328 231.398 16.328C229.179 16.328 227.302 17.0107 225.766 18.376C224.273 19.6987 223.355 21.5547 223.014 23.944H239.846ZM288.626 26.504C288.626 27.784 288.541 28.936 288.37 29.96H262.45C262.663 32.52 263.559 34.5253 265.138 35.976C266.717 37.4267 268.658 38.152 270.962 38.152C274.29 38.152 276.658 36.7227 278.066 33.864H287.73C286.706 37.2773 284.743 40.0933 281.842 42.312C278.941 44.488 275.378 45.576 271.154 45.576C267.741 45.576 264.669 44.8293 261.938 43.336C259.25 41.8 257.138 39.6453 255.602 36.872C254.109 34.0987 253.362 30.8987 253.362 27.272C253.362 23.6027 254.109 20.3813 255.602 17.608C257.095 14.8347 259.186 12.7013 261.874 11.208C264.562 9.71467 267.655 8.968 271.154 8.968C274.525 8.968 277.533 9.69333 280.178 11.144C282.866 12.5947 284.935 14.664 286.386 17.352C287.879 19.9973 288.626 23.048 288.626 26.504ZM279.346 23.944C279.303 21.64 278.471 19.8053 276.85 18.44C275.229 17.032 273.245 16.328 270.898 16.328C268.679 16.328 266.802 17.0107 265.266 18.376C263.773 19.6987 262.855 21.5547 262.514 23.944H279.346ZM305.598 16.904V34.056C305.598 35.2507 305.875 36.1253 306.43 36.68C307.027 37.192 308.009 37.448 309.374 37.448H313.534V45H307.902C300.35 45 296.574 41.3307 296.574 33.992V16.904H292.35V9.544H296.574V0.775997H305.598V9.544H313.534V16.904H305.598Z" fill="url(#paint0_radial_316_329)"/>
<path d="M34.928 26.12C34.928 27.2293 34.864 28.4027 34.736 29.64H6.704C6.91733 33.096 8.09067 35.8053 10.224 37.768C12.4 39.688 15.024 40.648 18.096 40.648C20.6133 40.648 22.704 40.072 24.368 38.92C26.0747 37.7253 27.2693 36.1467 27.952 34.184H34.224C33.2853 37.5547 31.408 40.3067 28.592 42.44C25.776 44.5307 22.2773 45.576 18.096 45.576C14.768 45.576 11.7813 44.8293 9.136 43.336C6.53333 41.8427 4.48533 39.7307 2.992 37C1.49867 34.2267 0.752 31.0267 0.752 27.4C0.752 23.7733 1.47733 20.5947 2.928 17.864C4.37867 15.1333 6.40533 13.0427 9.008 11.592C11.6533 10.0987 14.6827 9.352 18.096 9.352C21.424 9.352 24.368 10.0773 26.928 11.528C29.488 12.9787 31.4507 14.984 32.816 17.544C34.224 20.0613 34.928 22.92 34.928 26.12ZM28.912 24.904C28.912 22.6853 28.4213 20.7867 27.44 19.208C26.4587 17.5867 25.1147 16.3707 23.408 15.56C21.744 14.7067 19.888 14.28 17.84 14.28C14.896 14.28 12.3787 15.2187 10.288 17.096C8.24 18.9733 7.06667 21.576 6.768 24.904H28.912ZM55.6715 39.624L66.5515 9.928H72.7595L58.9995 45H52.2155L38.4555 9.928H44.7275L55.6715 39.624ZM110.491 26.12C110.491 27.2293 110.427 28.4027 110.299 29.64H82.2665C82.4798 33.096 83.6532 35.8053 85.7865 37.768C87.9625 39.688 90.5865 40.648 93.6585 40.648C96.1758 40.648 98.2665 40.072 99.9305 38.92C101.637 37.7253 102.832 36.1467 103.515 34.184H109.787C108.848 37.5547 106.971 40.3067 104.155 42.44C101.339 44.5307 97.8398 45.576 93.6585 45.576C90.3305 45.576 87.3438 44.8293 84.6985 43.336C82.0958 41.8427 80.0478 39.7307 78.5545 37C77.0612 34.2267 76.3145 31.0267 76.3145 27.4C76.3145 23.7733 77.0398 20.5947 78.4905 17.864C79.9412 15.1333 81.9678 13.0427 84.5705 11.592C87.2158 10.0987 90.2452 9.352 93.6585 9.352C96.9865 9.352 99.9305 10.0773 102.491 11.528C105.051 12.9787 107.013 14.984 108.379 17.544C109.787 20.0613 110.491 22.92 110.491 26.12ZM104.475 24.904C104.475 22.6853 103.984 20.7867 103.003 19.208C102.021 17.5867 100.677 16.3707 98.9705 15.56C97.3065 14.7067 95.4505 14.28 93.4025 14.28C90.4585 14.28 87.9412 15.2187 85.8505 17.096C83.8025 18.9733 82.6292 21.576 82.3305 24.904H104.475ZM135.266 9.288C139.533 9.288 142.989 10.5893 145.634 13.192C148.279 15.752 149.602 19.464 149.602 24.328V45H143.842V25.16C143.842 21.6613 142.967 18.9947 141.218 17.16C139.469 15.2827 137.079 14.344 134.05 14.344C130.978 14.344 128.525 15.304 126.69 17.224C124.898 19.144 124.002 21.9387 124.002 25.608V45H118.178V9.928H124.002V14.92C125.154 13.128 126.711 11.7413 128.674 10.76C130.679 9.77866 132.877 9.288 135.266 9.288ZM207.308 0.327999V45H198.348V15.944L186.38 45H179.596L167.564 15.944V45H158.604V0.327999H168.78L182.988 33.544L197.196 0.327999H207.308ZM249.126 26.504C249.126 27.784 249.041 28.936 248.87 29.96H222.95C223.163 32.52 224.059 34.5253 225.638 35.976C227.217 37.4267 229.158 38.152 231.462 38.152C234.79 38.152 237.158 36.7227 238.566 33.864H248.23C247.206 37.2773 245.243 40.0933 242.342 42.312C239.441 44.488 235.878 45.576 231.654 45.576C228.241 45.576 225.169 44.8293 222.438 43.336C219.75 41.8 217.638 39.6453 216.102 36.872C214.609 34.0987 213.862 30.8987 213.862 27.272C213.862 23.6027 214.609 20.3813 216.102 17.608C217.595 14.8347 219.686 12.7013 222.374 11.208C225.062 9.71467 228.155 8.968 231.654 8.968C235.025 8.968 238.033 9.69333 240.678 11.144C243.366 12.5947 245.435 14.664 246.886 17.352C248.379 19.9973 249.126 23.048 249.126 26.504ZM239.846 23.944C239.803 21.64 238.971 19.8053 237.35 18.44C235.729 17.032 233.745 16.328 231.398 16.328C229.179 16.328 227.302 17.0107 225.766 18.376C224.273 19.6987 223.355 21.5547 223.014 23.944H239.846ZM288.626 26.504C288.626 27.784 288.541 28.936 288.37 29.96H262.45C262.663 32.52 263.559 34.5253 265.138 35.976C266.717 37.4267 268.658 38.152 270.962 38.152C274.29 38.152 276.658 36.7227 278.066 33.864H287.73C286.706 37.2773 284.743 40.0933 281.842 42.312C278.941 44.488 275.378 45.576 271.154 45.576C267.741 45.576 264.669 44.8293 261.938 43.336C259.25 41.8 257.138 39.6453 255.602 36.872C254.109 34.0987 253.362 30.8987 253.362 27.272C253.362 23.6027 254.109 20.3813 255.602 17.608C257.095 14.8347 259.186 12.7013 261.874 11.208C264.562 9.71467 267.655 8.968 271.154 8.968C274.525 8.968 277.533 9.69333 280.178 11.144C282.866 12.5947 284.935 14.664 286.386 17.352C287.879 19.9973 288.626 23.048 288.626 26.504ZM279.346 23.944C279.303 21.64 278.471 19.8053 276.85 18.44C275.229 17.032 273.245 16.328 270.898 16.328C268.679 16.328 266.802 17.0107 265.266 18.376C263.773 19.6987 262.855 21.5547 262.514 23.944H279.346ZM305.598 16.904V34.056C305.598 35.2507 305.875 36.1253 306.43 36.68C307.027 37.192 308.009 37.448 309.374 37.448H313.534V45H307.902C300.35 45 296.574 41.3307 296.574 33.992V16.904H292.35V9.544H296.574V0.775997H305.598V9.544H313.534V16.904H305.598Z" fill="url(#paint1_radial_316_329)"/>
<defs>
<radialGradient id="paint0_radial_316_329" cx="0" cy="0" r="1" gradientUnits="userSpaceOnUse" gradientTransform="translate(411.982 84.7863) rotate(-164.815) scale(214.981 145.067)">
<stop stop-color="#002513"/>
<stop offset="1" stop-color="white"/>
</radialGradient>
<radialGradient id="paint1_radial_316_329" cx="0" cy="0" r="1" gradientUnits="userSpaceOnUse" gradientTransform="translate(-97.0122 -38.1774) rotate(16.1374) scale(196.81 141.762)">
<stop stop-color="#1300FF"/>
<stop offset="1" stop-opacity="0"/>
<stop offset="1" stop-color="white" stop-opacity="0"/>
</radialGradient>
</defs>
</svg>
